<svg xmlns="http://www.w3.org/2000/svg" width="38.139" height="34.926" viewBox="0 0 38.139 34.926">
  <g id="_-e-icon" data-name="-e-icon" transform="translate(-1013.86 -1264.074)">
    <circle id="Fill_1" data-name="Fill 1" cx="3.5" cy="3.5" r="3.5" transform="translate(1033 1292)" fill="#fff"/>
    <g id="Group_5" data-name="Group 5">
      <ellipse id="Fill_2" data-name="Fill 2" cx="3.17" cy="3.22" rx="3.17" ry="3.22" transform="translate(1020.75 1292.55)" fill="#fff"/>
      <path id="Fill_4" data-name="Fill 4" d="M1039.631,1290.956h-19.672a2.13,2.13,0,0,1-1.97-1.756l-3.9-11.8a3.123,3.123,0,0,1,0-2.255,1.836,1.836,0,0,1,1.755-.811h24.1a.215.215,0,0,1,.066.012v-.021c.036-.311.361-3.067.549-4.217.185-1.214,2.973-2.666,9.774-5.936a1.137,1.137,0,0,1,.446-.094,1.269,1.269,0,0,1,1.165,1.054c.2.809-.115,1.958-1.611,2.757l-5.156,2.447c-.012.007-1.2.72-1.308,1.665-.091.87-1.833,14.058-2.182,16.693l-.009.066C1041.677,1288.779,1041.57,1290.956,1039.631,1290.956Zm-19.907-6.985.928,3.179h17.806l.389-3.179Zm-1.858-6.4.985,3.395h20.365l.415-3.395Z" fill="#fff"/>
    </g>
  </g>
</svg>
