<svg xmlns="http://www.w3.org/2000/svg" width="15" height="14" viewBox="0 0 15 14">
  <g id="star_copy_4" data-name="star copy 4" transform="translate(-632 -210)">
    <path id="Shape" d="M644.047,218.84a.456.456,0,0,0-.137.41l.62,3.523a1.006,1.006,0,0,1-.234.85,1.09,1.09,0,0,1-1.326.255l-3.248-1.664a.5.5,0,0,0-.442,0l-3.248,1.664a1.107,1.107,0,0,1-1.326-.255,1.007,1.007,0,0,1-.234-.85l.62-3.523a.456.456,0,0,0-.137-.41l-2.628-2.5a1.023,1.023,0,0,1-.272-1.074,1.062,1.062,0,0,1,.869-.714l3.632-.514a.474.474,0,0,0,.358-.253l1.624-3.206a1.089,1.089,0,0,1,1.929,0l1.624,3.206a.474.474,0,0,0,.357.253l3.632.514a1.062,1.062,0,0,1,.869.713,1.023,1.023,0,0,1-.272,1.074Z" fill="#c7c7c7"/>
  </g>
</svg>
